<mxfile host="Electron" agent="Mozilla/5.0 (Macintosh; Intel Mac OS X 10_15_7) AppleWebKit/537.36 (KHTML, like Gecko) draw.io/26.2.2 Chrome/134.0.6998.178 Electron/35.1.2 Safari/537.36" version="26.2.2" pages="3">
  <diagram name="Casos de uso" id="TyZ_jnQAxACq3pWRtku7">
    <mxGraphModel dx="840" dy="1184" grid="1" gridSize="10" guides="1" tooltips="1" connect="1" arrows="1" fold="1" page="1" pageScale="1" pageWidth="827" pageHeight="1169" math="0" shadow="0">
      <root>
        <mxCell id="0" />
        <mxCell id="1" parent="0" />
        <mxCell id="D_Av09XtHHEbRSWtlqFR-1" value="SI de gestión de tareas domésticas" style="swimlane;whiteSpace=wrap;html=1;" parent="1" vertex="1">
          <mxGeometry x="239" y="130" width="461" height="730" as="geometry" />
        </mxCell>
        <mxCell id="D_Av09XtHHEbRSWtlqFR-4" value="Iniciar sesión" style="ellipse;whiteSpace=wrap;html=1;" parent="D_Av09XtHHEbRSWtlqFR-1" vertex="1">
          <mxGeometry x="41" y="160" width="140" height="70" as="geometry" />
        </mxCell>
        <mxCell id="D_Av09XtHHEbRSWtlqFR-8" value="Registrar usuario" style="ellipse;whiteSpace=wrap;html=1;" parent="D_Av09XtHHEbRSWtlqFR-1" vertex="1">
          <mxGeometry x="41" y="40" width="140" height="70" as="geometry" />
        </mxCell>
        <mxCell id="D_Av09XtHHEbRSWtlqFR-10" value="Crear tarea" style="ellipse;whiteSpace=wrap;html=1;" parent="D_Av09XtHHEbRSWtlqFR-1" vertex="1">
          <mxGeometry x="41" y="270" width="140" height="70" as="geometry" />
        </mxCell>
        <mxCell id="D_Av09XtHHEbRSWtlqFR-12" value="Gestionar Tarea" style="ellipse;whiteSpace=wrap;html=1;" parent="D_Av09XtHHEbRSWtlqFR-1" vertex="1">
          <mxGeometry x="41" y="380" width="140" height="70" as="geometry" />
        </mxCell>
        <mxCell id="D_Av09XtHHEbRSWtlqFR-14" value="Eliminar tarea" style="ellipse;whiteSpace=wrap;html=1;" parent="D_Av09XtHHEbRSWtlqFR-1" vertex="1">
          <mxGeometry x="271" y="300" width="140" height="70" as="geometry" />
        </mxCell>
        <mxCell id="D_Av09XtHHEbRSWtlqFR-15" value="Modificar tarea" style="ellipse;whiteSpace=wrap;html=1;" parent="D_Av09XtHHEbRSWtlqFR-1" vertex="1">
          <mxGeometry x="271" y="381" width="140" height="70" as="geometry" />
        </mxCell>
        <mxCell id="D_Av09XtHHEbRSWtlqFR-16" value="Cambiar estado" style="ellipse;whiteSpace=wrap;html=1;" parent="D_Av09XtHHEbRSWtlqFR-1" vertex="1">
          <mxGeometry x="271" y="460" width="140" height="70" as="geometry" />
        </mxCell>
        <mxCell id="D_Av09XtHHEbRSWtlqFR-17" value="Extends" style="endArrow=block;endSize=16;endFill=0;html=1;rounded=0;entryX=1;entryY=0.5;entryDx=0;entryDy=0;exitX=0;exitY=0.5;exitDx=0;exitDy=0;" parent="D_Av09XtHHEbRSWtlqFR-1" source="D_Av09XtHHEbRSWtlqFR-14" target="D_Av09XtHHEbRSWtlqFR-12" edge="1">
          <mxGeometry width="160" relative="1" as="geometry">
            <mxPoint x="121" y="370" as="sourcePoint" />
            <mxPoint x="281" y="370" as="targetPoint" />
          </mxGeometry>
        </mxCell>
        <mxCell id="D_Av09XtHHEbRSWtlqFR-18" value="Extends" style="endArrow=block;endSize=16;endFill=0;html=1;rounded=0;entryX=1;entryY=0.5;entryDx=0;entryDy=0;exitX=0;exitY=0.5;exitDx=0;exitDy=0;" parent="D_Av09XtHHEbRSWtlqFR-1" source="D_Av09XtHHEbRSWtlqFR-15" target="D_Av09XtHHEbRSWtlqFR-12" edge="1">
          <mxGeometry width="160" relative="1" as="geometry">
            <mxPoint x="91" y="500" as="sourcePoint" />
            <mxPoint x="251" y="500" as="targetPoint" />
          </mxGeometry>
        </mxCell>
        <mxCell id="D_Av09XtHHEbRSWtlqFR-19" value="Extends" style="endArrow=block;endSize=16;endFill=0;html=1;rounded=0;entryX=1;entryY=0.5;entryDx=0;entryDy=0;exitX=0;exitY=0.5;exitDx=0;exitDy=0;" parent="D_Av09XtHHEbRSWtlqFR-1" source="D_Av09XtHHEbRSWtlqFR-16" target="D_Av09XtHHEbRSWtlqFR-12" edge="1">
          <mxGeometry width="160" relative="1" as="geometry">
            <mxPoint x="81" y="520" as="sourcePoint" />
            <mxPoint x="241" y="520" as="targetPoint" />
          </mxGeometry>
        </mxCell>
        <mxCell id="D_Av09XtHHEbRSWtlqFR-20" value="Mostrar lista de tareas activas" style="ellipse;whiteSpace=wrap;html=1;" parent="D_Av09XtHHEbRSWtlqFR-1" vertex="1">
          <mxGeometry x="41" y="490" width="140" height="70" as="geometry" />
        </mxCell>
        <mxCell id="D_Av09XtHHEbRSWtlqFR-22" value="Mostrar historial de tareas realizadas&amp;nbsp;" style="ellipse;whiteSpace=wrap;html=1;" parent="D_Av09XtHHEbRSWtlqFR-1" vertex="1">
          <mxGeometry x="41" y="600" width="140" height="70" as="geometry" />
        </mxCell>
        <mxCell id="k_qUGCpG5lqtcnxgg0me-1" value="Extends" style="endArrow=block;endSize=16;endFill=0;html=1;rounded=0;entryX=0.5;entryY=1;entryDx=0;entryDy=0;" edge="1" parent="D_Av09XtHHEbRSWtlqFR-1" source="D_Av09XtHHEbRSWtlqFR-4" target="D_Av09XtHHEbRSWtlqFR-8">
          <mxGeometry width="160" relative="1" as="geometry">
            <mxPoint x="91" y="270" as="sourcePoint" />
            <mxPoint x="251" y="270" as="targetPoint" />
          </mxGeometry>
        </mxCell>
        <mxCell id="D_Av09XtHHEbRSWtlqFR-5" style="edgeStyle=orthogonalEdgeStyle;rounded=0;orthogonalLoop=1;jettySize=auto;html=1;entryX=0;entryY=0.5;entryDx=0;entryDy=0;" parent="1" source="D_Av09XtHHEbRSWtlqFR-2" target="D_Av09XtHHEbRSWtlqFR-4" edge="1">
          <mxGeometry relative="1" as="geometry" />
        </mxCell>
        <mxCell id="D_Av09XtHHEbRSWtlqFR-9" style="edgeStyle=orthogonalEdgeStyle;rounded=0;orthogonalLoop=1;jettySize=auto;html=1;entryX=0;entryY=0.5;entryDx=0;entryDy=0;" parent="1" source="D_Av09XtHHEbRSWtlqFR-2" target="D_Av09XtHHEbRSWtlqFR-8" edge="1">
          <mxGeometry relative="1" as="geometry" />
        </mxCell>
        <mxCell id="D_Av09XtHHEbRSWtlqFR-11" style="edgeStyle=orthogonalEdgeStyle;rounded=0;orthogonalLoop=1;jettySize=auto;html=1;entryX=0;entryY=0.5;entryDx=0;entryDy=0;" parent="1" source="D_Av09XtHHEbRSWtlqFR-2" target="D_Av09XtHHEbRSWtlqFR-10" edge="1">
          <mxGeometry relative="1" as="geometry" />
        </mxCell>
        <mxCell id="D_Av09XtHHEbRSWtlqFR-13" style="edgeStyle=orthogonalEdgeStyle;rounded=0;orthogonalLoop=1;jettySize=auto;html=1;entryX=0;entryY=0.5;entryDx=0;entryDy=0;" parent="1" source="D_Av09XtHHEbRSWtlqFR-2" target="D_Av09XtHHEbRSWtlqFR-12" edge="1">
          <mxGeometry relative="1" as="geometry" />
        </mxCell>
        <mxCell id="D_Av09XtHHEbRSWtlqFR-21" style="edgeStyle=orthogonalEdgeStyle;rounded=0;orthogonalLoop=1;jettySize=auto;html=1;entryX=0;entryY=0.5;entryDx=0;entryDy=0;" parent="1" source="D_Av09XtHHEbRSWtlqFR-2" target="D_Av09XtHHEbRSWtlqFR-20" edge="1">
          <mxGeometry relative="1" as="geometry" />
        </mxCell>
        <mxCell id="D_Av09XtHHEbRSWtlqFR-23" style="edgeStyle=orthogonalEdgeStyle;rounded=0;orthogonalLoop=1;jettySize=auto;html=1;entryX=0;entryY=0.5;entryDx=0;entryDy=0;" parent="1" source="D_Av09XtHHEbRSWtlqFR-2" target="D_Av09XtHHEbRSWtlqFR-22" edge="1">
          <mxGeometry relative="1" as="geometry" />
        </mxCell>
        <mxCell id="D_Av09XtHHEbRSWtlqFR-2" value="Usario" style="shape=umlActor;verticalLabelPosition=bottom;verticalAlign=top;html=1;outlineConnect=0;" parent="1" vertex="1">
          <mxGeometry x="130" y="280" width="30" height="60" as="geometry" />
        </mxCell>
      </root>
    </mxGraphModel>
  </diagram>
  <diagram id="F97_McdDgxo1-yVJN3Jo" name="Clases">
    <mxGraphModel dx="588" dy="829" grid="1" gridSize="10" guides="1" tooltips="1" connect="1" arrows="1" fold="1" page="1" pageScale="1" pageWidth="827" pageHeight="1169" math="0" shadow="0">
      <root>
        <mxCell id="0" />
        <mxCell id="1" parent="0" />
        <mxCell id="tYepPWSSrjBr-gawkIOg-42" style="edgeStyle=orthogonalEdgeStyle;rounded=0;orthogonalLoop=1;jettySize=auto;html=1;entryX=0;entryY=0.5;entryDx=0;entryDy=0;" parent="1" source="tYepPWSSrjBr-gawkIOg-1" target="tYepPWSSrjBr-gawkIOg-10" edge="1">
          <mxGeometry relative="1" as="geometry" />
        </mxCell>
        <mxCell id="tYepPWSSrjBr-gawkIOg-1" value="Usuario" style="swimlane;fontStyle=1;align=center;verticalAlign=top;childLayout=stackLayout;horizontal=1;startSize=26;horizontalStack=0;resizeParent=1;resizeParentMax=0;resizeLast=0;collapsible=1;marginBottom=0;whiteSpace=wrap;html=1;" parent="1" vertex="1">
          <mxGeometry x="390" y="270" width="190" height="144" as="geometry" />
        </mxCell>
        <mxCell id="tYepPWSSrjBr-gawkIOg-44" style="edgeStyle=orthogonalEdgeStyle;rounded=0;orthogonalLoop=1;jettySize=auto;html=1;" parent="tYepPWSSrjBr-gawkIOg-1" source="tYepPWSSrjBr-gawkIOg-2" edge="1">
          <mxGeometry relative="1" as="geometry">
            <mxPoint x="-120" y="-100" as="targetPoint" />
          </mxGeometry>
        </mxCell>
        <mxCell id="tYepPWSSrjBr-gawkIOg-2" value="&lt;div&gt;+ Id_Usuario&lt;/div&gt;+ Nombre Usuario&lt;div&gt;+ Email&lt;/div&gt;&lt;div&gt;+ Contraseña&lt;/div&gt;&lt;div&gt;+ Puntaje&lt;/div&gt;" style="text;strokeColor=none;fillColor=none;align=left;verticalAlign=top;spacingLeft=4;spacingRight=4;overflow=hidden;rotatable=0;points=[[0,0.5],[1,0.5]];portConstraint=eastwest;whiteSpace=wrap;html=1;" parent="tYepPWSSrjBr-gawkIOg-1" vertex="1">
          <mxGeometry y="26" width="190" height="84" as="geometry" />
        </mxCell>
        <mxCell id="tYepPWSSrjBr-gawkIOg-3" value="" style="line;strokeWidth=1;fillColor=none;align=left;verticalAlign=middle;spacingTop=-1;spacingLeft=3;spacingRight=3;rotatable=0;labelPosition=right;points=[];portConstraint=eastwest;strokeColor=inherit;" parent="tYepPWSSrjBr-gawkIOg-1" vertex="1">
          <mxGeometry y="110" width="190" height="8" as="geometry" />
        </mxCell>
        <mxCell id="tYepPWSSrjBr-gawkIOg-4" value="+ method(type): type" style="text;strokeColor=none;fillColor=none;align=left;verticalAlign=top;spacingLeft=4;spacingRight=4;overflow=hidden;rotatable=0;points=[[0,0.5],[1,0.5]];portConstraint=eastwest;whiteSpace=wrap;html=1;" parent="tYepPWSSrjBr-gawkIOg-1" vertex="1">
          <mxGeometry y="118" width="190" height="26" as="geometry" />
        </mxCell>
        <mxCell id="tYepPWSSrjBr-gawkIOg-41" style="edgeStyle=orthogonalEdgeStyle;rounded=0;orthogonalLoop=1;jettySize=auto;html=1;entryX=1;entryY=0.5;entryDx=0;entryDy=0;" parent="1" source="tYepPWSSrjBr-gawkIOg-5" target="tYepPWSSrjBr-gawkIOg-18" edge="1">
          <mxGeometry relative="1" as="geometry" />
        </mxCell>
        <mxCell id="tYepPWSSrjBr-gawkIOg-43" style="edgeStyle=orthogonalEdgeStyle;rounded=0;orthogonalLoop=1;jettySize=auto;html=1;entryX=1;entryY=0.5;entryDx=0;entryDy=0;" parent="1" source="tYepPWSSrjBr-gawkIOg-5" target="tYepPWSSrjBr-gawkIOg-10" edge="1">
          <mxGeometry relative="1" as="geometry" />
        </mxCell>
        <mxCell id="tYepPWSSrjBr-gawkIOg-5" value="Tarea" style="swimlane;fontStyle=1;align=center;verticalAlign=top;childLayout=stackLayout;horizontal=1;startSize=26;horizontalStack=0;resizeParent=1;resizeParentMax=0;resizeLast=0;collapsible=1;marginBottom=0;whiteSpace=wrap;html=1;" parent="1" vertex="1">
          <mxGeometry x="770" y="240" width="180" height="204" as="geometry" />
        </mxCell>
        <mxCell id="tYepPWSSrjBr-gawkIOg-6" value="&lt;div&gt;+ Id_Tarea&lt;/div&gt;+ Nombre Tarea&lt;div&gt;+ Descripción&lt;/div&gt;&lt;div&gt;+ Fecha limite&lt;/div&gt;&lt;div&gt;+ Estado&lt;/div&gt;&lt;div&gt;+ Fecha de creación&amp;nbsp;&lt;/div&gt;&lt;div&gt;+ Creador&lt;/div&gt;&lt;div&gt;+ Designado&lt;/div&gt;&lt;div&gt;+ Categoría&amp;nbsp;&lt;/div&gt;&lt;div&gt;+ Valor&lt;/div&gt;" style="text;strokeColor=none;fillColor=none;align=left;verticalAlign=top;spacingLeft=4;spacingRight=4;overflow=hidden;rotatable=0;points=[[0,0.5],[1,0.5]];portConstraint=eastwest;whiteSpace=wrap;html=1;" parent="tYepPWSSrjBr-gawkIOg-5" vertex="1">
          <mxGeometry y="26" width="180" height="144" as="geometry" />
        </mxCell>
        <mxCell id="tYepPWSSrjBr-gawkIOg-7" value="" style="line;strokeWidth=1;fillColor=none;align=left;verticalAlign=middle;spacingTop=-1;spacingLeft=3;spacingRight=3;rotatable=0;labelPosition=right;points=[];portConstraint=eastwest;strokeColor=inherit;" parent="tYepPWSSrjBr-gawkIOg-5" vertex="1">
          <mxGeometry y="170" width="180" height="8" as="geometry" />
        </mxCell>
        <mxCell id="tYepPWSSrjBr-gawkIOg-8" value="+ method(type): type" style="text;strokeColor=none;fillColor=none;align=left;verticalAlign=top;spacingLeft=4;spacingRight=4;overflow=hidden;rotatable=0;points=[[0,0.5],[1,0.5]];portConstraint=eastwest;whiteSpace=wrap;html=1;" parent="tYepPWSSrjBr-gawkIOg-5" vertex="1">
          <mxGeometry y="178" width="180" height="26" as="geometry" />
        </mxCell>
        <mxCell id="tYepPWSSrjBr-gawkIOg-9" value="Historial" style="swimlane;fontStyle=1;align=center;verticalAlign=top;childLayout=stackLayout;horizontal=1;startSize=26;horizontalStack=0;resizeParent=1;resizeParentMax=0;resizeLast=0;collapsible=1;marginBottom=0;whiteSpace=wrap;html=1;" parent="1" vertex="1">
          <mxGeometry x="590" y="540" width="160" height="124" as="geometry" />
        </mxCell>
        <mxCell id="tYepPWSSrjBr-gawkIOg-10" value="+ Nombre Tarea&lt;div&gt;+ Nombre Usuario&lt;/div&gt;&lt;div&gt;+ Fecha de fin&lt;/div&gt;&lt;div&gt;&lt;br&gt;&lt;/div&gt;" style="text;strokeColor=none;fillColor=none;align=left;verticalAlign=top;spacingLeft=4;spacingRight=4;overflow=hidden;rotatable=0;points=[[0,0.5],[1,0.5]];portConstraint=eastwest;whiteSpace=wrap;html=1;" parent="tYepPWSSrjBr-gawkIOg-9" vertex="1">
          <mxGeometry y="26" width="160" height="64" as="geometry" />
        </mxCell>
        <mxCell id="tYepPWSSrjBr-gawkIOg-11" value="" style="line;strokeWidth=1;fillColor=none;align=left;verticalAlign=middle;spacingTop=-1;spacingLeft=3;spacingRight=3;rotatable=0;labelPosition=right;points=[];portConstraint=eastwest;strokeColor=inherit;" parent="tYepPWSSrjBr-gawkIOg-9" vertex="1">
          <mxGeometry y="90" width="160" height="8" as="geometry" />
        </mxCell>
        <mxCell id="tYepPWSSrjBr-gawkIOg-12" value="+ method(type): type" style="text;strokeColor=none;fillColor=none;align=left;verticalAlign=top;spacingLeft=4;spacingRight=4;overflow=hidden;rotatable=0;points=[[0,0.5],[1,0.5]];portConstraint=eastwest;whiteSpace=wrap;html=1;" parent="tYepPWSSrjBr-gawkIOg-9" vertex="1">
          <mxGeometry y="98" width="160" height="26" as="geometry" />
        </mxCell>
        <mxCell id="tYepPWSSrjBr-gawkIOg-13" value="Puntaje" style="swimlane;fontStyle=1;align=center;verticalAlign=top;childLayout=stackLayout;horizontal=1;startSize=26;horizontalStack=0;resizeParent=1;resizeParentMax=0;resizeLast=0;collapsible=1;marginBottom=0;whiteSpace=wrap;html=1;" parent="1" vertex="1">
          <mxGeometry x="200" y="30" width="145" height="134" as="geometry" />
        </mxCell>
        <mxCell id="tYepPWSSrjBr-gawkIOg-14" value="&lt;div&gt;+ Id_Usuario&lt;/div&gt;+ Nombre Usuario&lt;div&gt;+ Total Puntos&lt;/div&gt;&lt;div&gt;+ Tareas completadas&lt;/div&gt;&lt;div&gt;&lt;br&gt;&lt;/div&gt;" style="text;strokeColor=none;fillColor=none;align=left;verticalAlign=top;spacingLeft=4;spacingRight=4;overflow=hidden;rotatable=0;points=[[0,0.5],[1,0.5]];portConstraint=eastwest;whiteSpace=wrap;html=1;" parent="tYepPWSSrjBr-gawkIOg-13" vertex="1">
          <mxGeometry y="26" width="145" height="74" as="geometry" />
        </mxCell>
        <mxCell id="tYepPWSSrjBr-gawkIOg-15" value="" style="line;strokeWidth=1;fillColor=none;align=left;verticalAlign=middle;spacingTop=-1;spacingLeft=3;spacingRight=3;rotatable=0;labelPosition=right;points=[];portConstraint=eastwest;strokeColor=inherit;" parent="tYepPWSSrjBr-gawkIOg-13" vertex="1">
          <mxGeometry y="100" width="145" height="8" as="geometry" />
        </mxCell>
        <mxCell id="tYepPWSSrjBr-gawkIOg-16" value="+ method(type): type" style="text;strokeColor=none;fillColor=none;align=left;verticalAlign=top;spacingLeft=4;spacingRight=4;overflow=hidden;rotatable=0;points=[[0,0.5],[1,0.5]];portConstraint=eastwest;whiteSpace=wrap;html=1;" parent="tYepPWSSrjBr-gawkIOg-13" vertex="1">
          <mxGeometry y="108" width="145" height="26" as="geometry" />
        </mxCell>
        <mxCell id="tYepPWSSrjBr-gawkIOg-17" value="Rotación Automática&amp;nbsp;" style="swimlane;fontStyle=1;align=center;verticalAlign=top;childLayout=stackLayout;horizontal=1;startSize=26;horizontalStack=0;resizeParent=1;resizeParentMax=0;resizeLast=0;collapsible=1;marginBottom=0;whiteSpace=wrap;html=1;" parent="1" vertex="1">
          <mxGeometry x="590" y="10" width="160" height="174" as="geometry" />
        </mxCell>
        <mxCell id="tYepPWSSrjBr-gawkIOg-18" value="+ Id_rot&lt;div&gt;+ Nombre&lt;/div&gt;&lt;div&gt;+ Frecuencia&amp;nbsp;&lt;/div&gt;&lt;div&gt;+ Id_Tarea&lt;/div&gt;&lt;div&gt;+ Lista Id_Usuario&lt;/div&gt;&lt;div&gt;+ Ultima asignación&lt;/div&gt;&lt;div&gt;+ Proximo usuario&lt;/div&gt;" style="text;strokeColor=none;fillColor=none;align=left;verticalAlign=top;spacingLeft=4;spacingRight=4;overflow=hidden;rotatable=0;points=[[0,0.5],[1,0.5]];portConstraint=eastwest;whiteSpace=wrap;html=1;" parent="tYepPWSSrjBr-gawkIOg-17" vertex="1">
          <mxGeometry y="26" width="160" height="114" as="geometry" />
        </mxCell>
        <mxCell id="tYepPWSSrjBr-gawkIOg-19" value="" style="line;strokeWidth=1;fillColor=none;align=left;verticalAlign=middle;spacingTop=-1;spacingLeft=3;spacingRight=3;rotatable=0;labelPosition=right;points=[];portConstraint=eastwest;strokeColor=inherit;" parent="tYepPWSSrjBr-gawkIOg-17" vertex="1">
          <mxGeometry y="140" width="160" height="8" as="geometry" />
        </mxCell>
        <mxCell id="tYepPWSSrjBr-gawkIOg-20" value="+ method(type): type" style="text;strokeColor=none;fillColor=none;align=left;verticalAlign=top;spacingLeft=4;spacingRight=4;overflow=hidden;rotatable=0;points=[[0,0.5],[1,0.5]];portConstraint=eastwest;whiteSpace=wrap;html=1;" parent="tYepPWSSrjBr-gawkIOg-17" vertex="1">
          <mxGeometry y="148" width="160" height="26" as="geometry" />
        </mxCell>
        <mxCell id="tYepPWSSrjBr-gawkIOg-21" style="edgeStyle=orthogonalEdgeStyle;rounded=0;orthogonalLoop=1;jettySize=auto;html=1;" parent="1" source="tYepPWSSrjBr-gawkIOg-2" target="tYepPWSSrjBr-gawkIOg-6" edge="1">
          <mxGeometry relative="1" as="geometry" />
        </mxCell>
        <mxCell id="tYepPWSSrjBr-gawkIOg-31" style="edgeStyle=orthogonalEdgeStyle;rounded=0;orthogonalLoop=1;jettySize=auto;html=1;entryX=0.468;entryY=-0.014;entryDx=0;entryDy=0;entryPerimeter=0;" parent="1" source="tYepPWSSrjBr-gawkIOg-18" target="tYepPWSSrjBr-gawkIOg-1" edge="1">
          <mxGeometry relative="1" as="geometry" />
        </mxCell>
        <mxCell id="tYepPWSSrjBr-gawkIOg-46" value="1" style="text;html=1;align=center;verticalAlign=middle;resizable=0;points=[];autosize=1;strokeColor=none;fillColor=none;" parent="1" vertex="1">
          <mxGeometry x="585" y="308" width="30" height="30" as="geometry" />
        </mxCell>
        <mxCell id="tYepPWSSrjBr-gawkIOg-47" value="0..*" style="text;html=1;align=center;verticalAlign=middle;resizable=0;points=[];autosize=1;strokeColor=none;fillColor=none;" parent="1" vertex="1">
          <mxGeometry x="730" y="308" width="40" height="30" as="geometry" />
        </mxCell>
        <mxCell id="tYepPWSSrjBr-gawkIOg-48" value="1" style="text;html=1;align=center;verticalAlign=middle;resizable=0;points=[];autosize=1;strokeColor=none;fillColor=none;" parent="1" vertex="1">
          <mxGeometry x="275" y="168" width="30" height="30" as="geometry" />
        </mxCell>
        <mxCell id="tYepPWSSrjBr-gawkIOg-49" value="1" style="text;html=1;align=center;verticalAlign=middle;resizable=0;points=[];autosize=1;strokeColor=none;fillColor=none;" parent="1" vertex="1">
          <mxGeometry x="355" y="298" width="30" height="30" as="geometry" />
        </mxCell>
        <mxCell id="tYepPWSSrjBr-gawkIOg-50" value="0..1" style="text;html=1;align=center;verticalAlign=middle;resizable=0;points=[];autosize=1;strokeColor=none;fillColor=none;" parent="1" vertex="1">
          <mxGeometry x="860" y="208" width="40" height="30" as="geometry" />
        </mxCell>
        <mxCell id="tYepPWSSrjBr-gawkIOg-51" value="1" style="text;html=1;align=center;verticalAlign=middle;resizable=0;points=[];autosize=1;strokeColor=none;fillColor=none;" parent="1" vertex="1">
          <mxGeometry x="750" y="60" width="30" height="30" as="geometry" />
        </mxCell>
        <mxCell id="tYepPWSSrjBr-gawkIOg-52" value="0..*" style="text;html=1;align=center;verticalAlign=middle;resizable=0;points=[];autosize=1;strokeColor=none;fillColor=none;" parent="1" vertex="1">
          <mxGeometry x="430" y="230" width="40" height="30" as="geometry" />
        </mxCell>
        <mxCell id="tYepPWSSrjBr-gawkIOg-53" value="0..*" style="text;html=1;align=center;verticalAlign=middle;resizable=0;points=[];autosize=1;strokeColor=none;fillColor=none;" parent="1" vertex="1">
          <mxGeometry x="540" y="48" width="40" height="30" as="geometry" />
        </mxCell>
        <mxCell id="tYepPWSSrjBr-gawkIOg-54" value="1" style="text;html=1;align=center;verticalAlign=middle;resizable=0;points=[];autosize=1;strokeColor=none;fillColor=none;" parent="1" vertex="1">
          <mxGeometry x="865" y="458" width="30" height="30" as="geometry" />
        </mxCell>
        <mxCell id="tYepPWSSrjBr-gawkIOg-55" value="0..*" style="text;html=1;align=center;verticalAlign=middle;resizable=0;points=[];autosize=1;strokeColor=none;fillColor=none;" parent="1" vertex="1">
          <mxGeometry x="750" y="608" width="40" height="30" as="geometry" />
        </mxCell>
        <mxCell id="tYepPWSSrjBr-gawkIOg-56" value="1" style="text;html=1;align=center;verticalAlign=middle;resizable=0;points=[];autosize=1;strokeColor=none;fillColor=none;" parent="1" vertex="1">
          <mxGeometry x="435" y="418" width="30" height="30" as="geometry" />
        </mxCell>
        <mxCell id="tYepPWSSrjBr-gawkIOg-57" value="0..*" style="text;html=1;align=center;verticalAlign=middle;resizable=0;points=[];autosize=1;strokeColor=none;fillColor=none;" parent="1" vertex="1">
          <mxGeometry x="540" y="608" width="40" height="30" as="geometry" />
        </mxCell>
      </root>
    </mxGraphModel>
  </diagram>
  <diagram id="vMO8iAS3Z1DmG_P4IFj4" name="Proceso">
    <mxGraphModel dx="3565" dy="1382" grid="1" gridSize="10" guides="1" tooltips="1" connect="1" arrows="1" fold="1" page="1" pageScale="1" pageWidth="827" pageHeight="1169" math="0" shadow="0">
      <root>
        <mxCell id="0" />
        <mxCell id="1" parent="0" />
        <mxCell id="nLGq394SK_4wdBL7Stfw-4" value="" style="edgeStyle=orthogonalEdgeStyle;rounded=0;orthogonalLoop=1;jettySize=auto;html=1;" parent="1" source="nLGq394SK_4wdBL7Stfw-2" target="nLGq394SK_4wdBL7Stfw-3" edge="1">
          <mxGeometry relative="1" as="geometry" />
        </mxCell>
        <mxCell id="nLGq394SK_4wdBL7Stfw-2" value="Usuario entra al Login del sistema&lt;div&gt;&lt;br&gt;&lt;/div&gt;" style="points=[[0.145,0.145,0],[0.5,0,0],[0.855,0.145,0],[1,0.5,0],[0.855,0.855,0],[0.5,1,0],[0.145,0.855,0],[0,0.5,0]];shape=mxgraph.bpmn.event;html=1;verticalLabelPosition=bottom;labelBackgroundColor=#ffffff;verticalAlign=top;align=center;perimeter=ellipsePerimeter;outlineConnect=0;aspect=fixed;outline=standard;symbol=general;" parent="1" vertex="1">
          <mxGeometry x="30" y="240" width="50" height="50" as="geometry" />
        </mxCell>
        <mxCell id="nLGq394SK_4wdBL7Stfw-6" value="" style="edgeStyle=orthogonalEdgeStyle;rounded=0;orthogonalLoop=1;jettySize=auto;html=1;" parent="1" source="nLGq394SK_4wdBL7Stfw-3" target="nLGq394SK_4wdBL7Stfw-5" edge="1">
          <mxGeometry relative="1" as="geometry" />
        </mxCell>
        <mxCell id="nLGq394SK_4wdBL7Stfw-3" value="&lt;div&gt;&lt;br&gt;&lt;/div&gt;Es un usuario registrado?" style="rounded=1;whiteSpace=wrap;html=1;verticalAlign=top;labelBackgroundColor=#ffffff;" parent="1" vertex="1">
          <mxGeometry x="125" y="235" width="120" height="60" as="geometry" />
        </mxCell>
        <mxCell id="nLGq394SK_4wdBL7Stfw-9" style="edgeStyle=orthogonalEdgeStyle;rounded=0;orthogonalLoop=1;jettySize=auto;html=1;entryX=0;entryY=0.5;entryDx=0;entryDy=0;" parent="1" source="nLGq394SK_4wdBL7Stfw-5" target="nLGq394SK_4wdBL7Stfw-7" edge="1">
          <mxGeometry relative="1" as="geometry">
            <Array as="points">
              <mxPoint x="385" y="170" />
            </Array>
          </mxGeometry>
        </mxCell>
        <mxCell id="nLGq394SK_4wdBL7Stfw-12" value="" style="edgeStyle=orthogonalEdgeStyle;rounded=0;orthogonalLoop=1;jettySize=auto;html=1;" parent="1" source="nLGq394SK_4wdBL7Stfw-5" target="nLGq394SK_4wdBL7Stfw-11" edge="1">
          <mxGeometry relative="1" as="geometry">
            <Array as="points">
              <mxPoint x="385" y="350" />
            </Array>
          </mxGeometry>
        </mxCell>
        <mxCell id="nLGq394SK_4wdBL7Stfw-5" value="" style="rhombus;whiteSpace=wrap;html=1;verticalAlign=top;rounded=1;labelBackgroundColor=#ffffff;" parent="1" vertex="1">
          <mxGeometry x="345" y="225" width="80" height="80" as="geometry" />
        </mxCell>
        <mxCell id="nLGq394SK_4wdBL7Stfw-16" value="" style="edgeStyle=orthogonalEdgeStyle;rounded=0;orthogonalLoop=1;jettySize=auto;html=1;" parent="1" source="nLGq394SK_4wdBL7Stfw-7" target="nLGq394SK_4wdBL7Stfw-15" edge="1">
          <mxGeometry relative="1" as="geometry" />
        </mxCell>
        <mxCell id="nLGq394SK_4wdBL7Stfw-7" value="&lt;div&gt;&lt;br&gt;&lt;/div&gt;Solicitar datos para el registro&amp;nbsp;" style="whiteSpace=wrap;html=1;verticalAlign=top;rounded=1;labelBackgroundColor=#ffffff;" parent="1" vertex="1">
          <mxGeometry x="490" y="140" width="120" height="60" as="geometry" />
        </mxCell>
        <mxCell id="nLGq394SK_4wdBL7Stfw-14" value="" style="edgeStyle=orthogonalEdgeStyle;rounded=0;orthogonalLoop=1;jettySize=auto;html=1;" parent="1" source="nLGq394SK_4wdBL7Stfw-11" target="nLGq394SK_4wdBL7Stfw-13" edge="1">
          <mxGeometry relative="1" as="geometry" />
        </mxCell>
        <mxCell id="nLGq394SK_4wdBL7Stfw-11" value="Solicitar datos para el inicio de sesión&amp;nbsp;" style="whiteSpace=wrap;html=1;verticalAlign=top;rounded=1;labelBackgroundColor=#ffffff;" parent="1" vertex="1">
          <mxGeometry x="490" y="320" width="120" height="60" as="geometry" />
        </mxCell>
        <mxCell id="nLGq394SK_4wdBL7Stfw-27" value="" style="edgeStyle=orthogonalEdgeStyle;rounded=0;orthogonalLoop=1;jettySize=auto;html=1;" parent="1" source="nLGq394SK_4wdBL7Stfw-13" target="nLGq394SK_4wdBL7Stfw-26" edge="1">
          <mxGeometry relative="1" as="geometry" />
        </mxCell>
        <mxCell id="nLGq394SK_4wdBL7Stfw-13" value="&lt;div&gt;&lt;br&gt;&lt;/div&gt;Que desea hacerse?" style="whiteSpace=wrap;html=1;verticalAlign=top;rounded=1;labelBackgroundColor=#ffffff;" parent="1" vertex="1">
          <mxGeometry x="690" y="320" width="120" height="60" as="geometry" />
        </mxCell>
        <mxCell id="nLGq394SK_4wdBL7Stfw-20" value="" style="edgeStyle=orthogonalEdgeStyle;rounded=0;orthogonalLoop=1;jettySize=auto;html=1;" parent="1" source="nLGq394SK_4wdBL7Stfw-15" target="nLGq394SK_4wdBL7Stfw-19" edge="1">
          <mxGeometry relative="1" as="geometry" />
        </mxCell>
        <mxCell id="nLGq394SK_4wdBL7Stfw-25" style="edgeStyle=orthogonalEdgeStyle;rounded=0;orthogonalLoop=1;jettySize=auto;html=1;entryX=0.5;entryY=0;entryDx=0;entryDy=0;" parent="1" source="nLGq394SK_4wdBL7Stfw-15" target="nLGq394SK_4wdBL7Stfw-13" edge="1">
          <mxGeometry relative="1" as="geometry" />
        </mxCell>
        <mxCell id="nLGq394SK_4wdBL7Stfw-19" value="" style="shape=datastore;html=1;labelPosition=center;verticalLabelPosition=bottom;align=center;verticalAlign=top;" parent="1" vertex="1">
          <mxGeometry x="720" y="20" width="60" height="70" as="geometry" />
        </mxCell>
        <mxCell id="nLGq394SK_4wdBL7Stfw-15" value="&lt;div&gt;&lt;br&gt;&lt;/div&gt;Creación del usuario" style="whiteSpace=wrap;html=1;verticalAlign=top;rounded=1;labelBackgroundColor=#ffffff;" parent="1" vertex="1">
          <mxGeometry x="690" y="140" width="120" height="60" as="geometry" />
        </mxCell>
        <mxCell id="nLGq394SK_4wdBL7Stfw-21" value="Usuarios" style="text;html=1;align=center;verticalAlign=middle;resizable=0;points=[];autosize=1;strokeColor=none;fillColor=none;" parent="1" vertex="1">
          <mxGeometry x="805" y="28" width="70" height="30" as="geometry" />
        </mxCell>
        <mxCell id="nLGq394SK_4wdBL7Stfw-23" value="" style="edgeStyle=orthogonalEdgeStyle;rounded=0;orthogonalLoop=1;jettySize=auto;html=1;" parent="1" source="nLGq394SK_4wdBL7Stfw-22" target="nLGq394SK_4wdBL7Stfw-11" edge="1">
          <mxGeometry relative="1" as="geometry" />
        </mxCell>
        <mxCell id="nLGq394SK_4wdBL7Stfw-22" value="" style="shape=datastore;html=1;labelPosition=center;verticalLabelPosition=bottom;align=center;verticalAlign=top;" parent="1" vertex="1">
          <mxGeometry x="520" y="460" width="60" height="70" as="geometry" />
        </mxCell>
        <mxCell id="nLGq394SK_4wdBL7Stfw-24" value="Usuarios" style="text;html=1;align=center;verticalAlign=middle;resizable=0;points=[];autosize=1;strokeColor=none;fillColor=none;" parent="1" vertex="1">
          <mxGeometry x="585" y="458" width="70" height="30" as="geometry" />
        </mxCell>
        <mxCell id="nLGq394SK_4wdBL7Stfw-29" value="" style="edgeStyle=orthogonalEdgeStyle;rounded=0;orthogonalLoop=1;jettySize=auto;html=1;" parent="1" source="nLGq394SK_4wdBL7Stfw-26" target="nLGq394SK_4wdBL7Stfw-28" edge="1">
          <mxGeometry relative="1" as="geometry">
            <Array as="points">
              <mxPoint x="950" y="195" />
            </Array>
          </mxGeometry>
        </mxCell>
        <mxCell id="nLGq394SK_4wdBL7Stfw-31" value="" style="edgeStyle=orthogonalEdgeStyle;rounded=0;orthogonalLoop=1;jettySize=auto;html=1;" parent="1" source="nLGq394SK_4wdBL7Stfw-26" target="nLGq394SK_4wdBL7Stfw-30" edge="1">
          <mxGeometry relative="1" as="geometry" />
        </mxCell>
        <mxCell id="nLGq394SK_4wdBL7Stfw-33" value="" style="edgeStyle=orthogonalEdgeStyle;rounded=0;orthogonalLoop=1;jettySize=auto;html=1;" parent="1" source="nLGq394SK_4wdBL7Stfw-26" target="nLGq394SK_4wdBL7Stfw-32" edge="1">
          <mxGeometry relative="1" as="geometry">
            <Array as="points">
              <mxPoint x="950" y="490" />
            </Array>
          </mxGeometry>
        </mxCell>
        <mxCell id="nLGq394SK_4wdBL7Stfw-34" value="" style="edgeStyle=orthogonalEdgeStyle;rounded=0;orthogonalLoop=1;jettySize=auto;html=1;" parent="1" source="nLGq394SK_4wdBL7Stfw-26" target="nLGq394SK_4wdBL7Stfw-30" edge="1">
          <mxGeometry relative="1" as="geometry" />
        </mxCell>
        <mxCell id="nLGq394SK_4wdBL7Stfw-38" style="edgeStyle=orthogonalEdgeStyle;rounded=0;orthogonalLoop=1;jettySize=auto;html=1;entryX=0;entryY=0.5;entryDx=0;entryDy=0;" parent="1" source="nLGq394SK_4wdBL7Stfw-26" target="nLGq394SK_4wdBL7Stfw-37" edge="1">
          <mxGeometry relative="1" as="geometry" />
        </mxCell>
        <mxCell id="nLGq394SK_4wdBL7Stfw-26" value="" style="rhombus;whiteSpace=wrap;html=1;verticalAlign=top;rounded=1;labelBackgroundColor=#ffffff;" parent="1" vertex="1">
          <mxGeometry x="910" y="310" width="80" height="80" as="geometry" />
        </mxCell>
        <mxCell id="mTKkv3BIIv_ACwgYkmda-6" value="" style="edgeStyle=orthogonalEdgeStyle;rounded=0;orthogonalLoop=1;jettySize=auto;html=1;" parent="1" source="nLGq394SK_4wdBL7Stfw-28" target="mTKkv3BIIv_ACwgYkmda-5" edge="1">
          <mxGeometry relative="1" as="geometry" />
        </mxCell>
        <mxCell id="nLGq394SK_4wdBL7Stfw-28" value="&lt;div&gt;&lt;br&gt;&lt;/div&gt;Visualizar lista de tareas&amp;nbsp;" style="whiteSpace=wrap;html=1;verticalAlign=top;rounded=1;labelBackgroundColor=#ffffff;" parent="1" vertex="1">
          <mxGeometry x="1121" y="165" width="120" height="60" as="geometry" />
        </mxCell>
        <mxCell id="nLGq394SK_4wdBL7Stfw-40" value="" style="edgeStyle=orthogonalEdgeStyle;rounded=0;orthogonalLoop=1;jettySize=auto;html=1;" parent="1" source="nLGq394SK_4wdBL7Stfw-30" target="nLGq394SK_4wdBL7Stfw-39" edge="1">
          <mxGeometry relative="1" as="geometry" />
        </mxCell>
        <mxCell id="nLGq394SK_4wdBL7Stfw-30" value="&lt;div&gt;&lt;br&gt;&lt;/div&gt;Crear tarea" style="whiteSpace=wrap;html=1;verticalAlign=top;rounded=1;labelBackgroundColor=#ffffff;" parent="1" vertex="1">
          <mxGeometry x="1121" y="260" width="120" height="60" as="geometry" />
        </mxCell>
        <mxCell id="mTKkv3BIIv_ACwgYkmda-10" value="" style="edgeStyle=orthogonalEdgeStyle;rounded=0;orthogonalLoop=1;jettySize=auto;html=1;" parent="1" source="nLGq394SK_4wdBL7Stfw-32" target="mTKkv3BIIv_ACwgYkmda-9" edge="1">
          <mxGeometry relative="1" as="geometry" />
        </mxCell>
        <mxCell id="nLGq394SK_4wdBL7Stfw-32" value="&lt;div&gt;&lt;br&gt;&lt;/div&gt;Editar tarea" style="whiteSpace=wrap;html=1;verticalAlign=top;rounded=1;labelBackgroundColor=#ffffff;" parent="1" vertex="1">
          <mxGeometry x="1121" y="465" width="120" height="60" as="geometry" />
        </mxCell>
        <mxCell id="nLGq394SK_4wdBL7Stfw-35" value="" style="edgeStyle=orthogonalEdgeStyle;rounded=0;orthogonalLoop=1;jettySize=auto;html=1;" parent="1" source="nLGq394SK_4wdBL7Stfw-26" target="nLGq394SK_4wdBL7Stfw-30" edge="1">
          <mxGeometry relative="1" as="geometry" />
        </mxCell>
        <mxCell id="mTKkv3BIIv_ACwgYkmda-2" value="" style="edgeStyle=orthogonalEdgeStyle;rounded=0;orthogonalLoop=1;jettySize=auto;html=1;" parent="1" source="nLGq394SK_4wdBL7Stfw-37" target="mTKkv3BIIv_ACwgYkmda-1" edge="1">
          <mxGeometry relative="1" as="geometry" />
        </mxCell>
        <mxCell id="nLGq394SK_4wdBL7Stfw-37" value="&lt;div&gt;&lt;br&gt;&lt;/div&gt;Eliminar tarea" style="whiteSpace=wrap;html=1;verticalAlign=top;rounded=1;labelBackgroundColor=#ffffff;" parent="1" vertex="1">
          <mxGeometry x="1121" y="360" width="120" height="60" as="geometry" />
        </mxCell>
        <mxCell id="nLGq394SK_4wdBL7Stfw-42" value="" style="edgeStyle=orthogonalEdgeStyle;rounded=0;orthogonalLoop=1;jettySize=auto;html=1;" parent="1" source="nLGq394SK_4wdBL7Stfw-39" target="nLGq394SK_4wdBL7Stfw-41" edge="1">
          <mxGeometry relative="1" as="geometry" />
        </mxCell>
        <mxCell id="nLGq394SK_4wdBL7Stfw-39" value="&lt;div&gt;&lt;br&gt;&lt;/div&gt;Completar formulario" style="whiteSpace=wrap;html=1;verticalAlign=top;rounded=1;labelBackgroundColor=#ffffff;" parent="1" vertex="1">
          <mxGeometry x="1321" y="260" width="120" height="60" as="geometry" />
        </mxCell>
        <mxCell id="nLGq394SK_4wdBL7Stfw-41" value="&lt;div&gt;&lt;br&gt;&lt;/div&gt;Registrar en el sistema" style="whiteSpace=wrap;html=1;verticalAlign=top;rounded=1;labelBackgroundColor=#ffffff;" parent="1" vertex="1">
          <mxGeometry x="1521" y="260" width="120" height="60" as="geometry" />
        </mxCell>
        <mxCell id="mTKkv3BIIv_ACwgYkmda-21" value="" style="edgeStyle=orthogonalEdgeStyle;rounded=0;orthogonalLoop=1;jettySize=auto;html=1;" parent="1" source="mTKkv3BIIv_ACwgYkmda-1" target="mTKkv3BIIv_ACwgYkmda-20" edge="1">
          <mxGeometry relative="1" as="geometry" />
        </mxCell>
        <mxCell id="mTKkv3BIIv_ACwgYkmda-1" value="Confirmar eliminación&amp;nbsp;" style="whiteSpace=wrap;html=1;verticalAlign=top;rounded=1;labelBackgroundColor=#ffffff;" parent="1" vertex="1">
          <mxGeometry x="1322" y="360" width="120" height="60" as="geometry" />
        </mxCell>
        <mxCell id="mTKkv3BIIv_ACwgYkmda-29" value="" style="edgeStyle=orthogonalEdgeStyle;rounded=0;orthogonalLoop=1;jettySize=auto;html=1;" parent="1" source="mTKkv3BIIv_ACwgYkmda-5" target="mTKkv3BIIv_ACwgYkmda-28" edge="1">
          <mxGeometry relative="1" as="geometry" />
        </mxCell>
        <mxCell id="mTKkv3BIIv_ACwgYkmda-5" value="&lt;div&gt;&lt;br&gt;&lt;/div&gt;Seleccionar tarea&lt;div&gt;&lt;br&gt;&lt;/div&gt;" style="whiteSpace=wrap;html=1;verticalAlign=top;rounded=1;labelBackgroundColor=#ffffff;" parent="1" vertex="1">
          <mxGeometry x="1321" y="165" width="120" height="60" as="geometry" />
        </mxCell>
        <mxCell id="mTKkv3BIIv_ACwgYkmda-12" value="" style="edgeStyle=orthogonalEdgeStyle;rounded=0;orthogonalLoop=1;jettySize=auto;html=1;" parent="1" source="mTKkv3BIIv_ACwgYkmda-9" target="mTKkv3BIIv_ACwgYkmda-11" edge="1">
          <mxGeometry relative="1" as="geometry" />
        </mxCell>
        <mxCell id="mTKkv3BIIv_ACwgYkmda-9" value="&lt;div&gt;Modificar datos de la tarea&lt;/div&gt;&lt;div&gt;&lt;br&gt;&lt;/div&gt;" style="whiteSpace=wrap;html=1;verticalAlign=top;rounded=1;labelBackgroundColor=#ffffff;" parent="1" vertex="1">
          <mxGeometry x="1321" y="465" width="120" height="60" as="geometry" />
        </mxCell>
        <mxCell id="mTKkv3BIIv_ACwgYkmda-11" value="Actualizar en el sistema" style="whiteSpace=wrap;html=1;verticalAlign=top;rounded=1;labelBackgroundColor=#ffffff;" parent="1" vertex="1">
          <mxGeometry x="1521" y="465" width="120" height="60" as="geometry" />
        </mxCell>
        <mxCell id="mTKkv3BIIv_ACwgYkmda-24" style="edgeStyle=orthogonalEdgeStyle;rounded=0;orthogonalLoop=1;jettySize=auto;html=1;" parent="1" source="mTKkv3BIIv_ACwgYkmda-20" target="mTKkv3BIIv_ACwgYkmda-22" edge="1">
          <mxGeometry relative="1" as="geometry" />
        </mxCell>
        <mxCell id="mTKkv3BIIv_ACwgYkmda-20" value="Eliminar tarea del sistema&amp;nbsp;" style="whiteSpace=wrap;html=1;verticalAlign=top;rounded=1;labelBackgroundColor=#ffffff;" parent="1" vertex="1">
          <mxGeometry x="1522" y="360" width="120" height="60" as="geometry" />
        </mxCell>
        <mxCell id="mTKkv3BIIv_ACwgYkmda-22" value="" style="points=[[0.145,0.145,0],[0.5,0,0],[0.855,0.145,0],[1,0.5,0],[0.855,0.855,0],[0.5,1,0],[0.145,0.855,0],[0,0.5,0]];shape=mxgraph.bpmn.event;html=1;verticalLabelPosition=bottom;labelBackgroundColor=#ffffff;verticalAlign=top;align=center;perimeter=ellipsePerimeter;outlineConnect=0;aspect=fixed;outline=end;symbol=terminate2;" parent="1" vertex="1">
          <mxGeometry x="1691" y="365" width="50" height="50" as="geometry" />
        </mxCell>
        <mxCell id="mTKkv3BIIv_ACwgYkmda-23" style="edgeStyle=orthogonalEdgeStyle;rounded=0;orthogonalLoop=1;jettySize=auto;html=1;entryX=0.5;entryY=0;entryDx=0;entryDy=0;entryPerimeter=0;" parent="1" source="nLGq394SK_4wdBL7Stfw-41" target="mTKkv3BIIv_ACwgYkmda-22" edge="1">
          <mxGeometry relative="1" as="geometry" />
        </mxCell>
        <mxCell id="mTKkv3BIIv_ACwgYkmda-25" style="edgeStyle=orthogonalEdgeStyle;rounded=0;orthogonalLoop=1;jettySize=auto;html=1;entryX=0.5;entryY=1;entryDx=0;entryDy=0;entryPerimeter=0;" parent="1" source="mTKkv3BIIv_ACwgYkmda-11" target="mTKkv3BIIv_ACwgYkmda-22" edge="1">
          <mxGeometry relative="1" as="geometry" />
        </mxCell>
        <mxCell id="mTKkv3BIIv_ACwgYkmda-31" value="" style="edgeStyle=orthogonalEdgeStyle;rounded=0;orthogonalLoop=1;jettySize=auto;html=1;" parent="1" source="mTKkv3BIIv_ACwgYkmda-28" target="mTKkv3BIIv_ACwgYkmda-30" edge="1">
          <mxGeometry relative="1" as="geometry" />
        </mxCell>
        <mxCell id="mTKkv3BIIv_ACwgYkmda-28" value="La tarea esta completada?" style="whiteSpace=wrap;html=1;verticalAlign=top;rounded=1;labelBackgroundColor=#ffffff;" parent="1" vertex="1">
          <mxGeometry x="1521" y="165" width="120" height="60" as="geometry" />
        </mxCell>
        <mxCell id="mTKkv3BIIv_ACwgYkmda-34" style="edgeStyle=orthogonalEdgeStyle;rounded=0;orthogonalLoop=1;jettySize=auto;html=1;entryX=0;entryY=0.5;entryDx=0;entryDy=0;" parent="1" source="mTKkv3BIIv_ACwgYkmda-30" target="mTKkv3BIIv_ACwgYkmda-32" edge="1">
          <mxGeometry relative="1" as="geometry" />
        </mxCell>
        <mxCell id="mTKkv3BIIv_ACwgYkmda-30" value="" style="rhombus;whiteSpace=wrap;html=1;verticalAlign=top;rounded=1;labelBackgroundColor=#ffffff;" parent="1" vertex="1">
          <mxGeometry x="1741" y="155" width="80" height="80" as="geometry" />
        </mxCell>
        <mxCell id="mTKkv3BIIv_ACwgYkmda-36" value="" style="edgeStyle=orthogonalEdgeStyle;rounded=0;orthogonalLoop=1;jettySize=auto;html=1;" parent="1" source="mTKkv3BIIv_ACwgYkmda-32" target="mTKkv3BIIv_ACwgYkmda-35" edge="1">
          <mxGeometry relative="1" as="geometry" />
        </mxCell>
        <mxCell id="mTKkv3BIIv_ACwgYkmda-32" value="Actualizar estado de la tarea" style="whiteSpace=wrap;html=1;verticalAlign=top;rounded=1;labelBackgroundColor=#ffffff;" parent="1" vertex="1">
          <mxGeometry x="1821" y="250" width="120" height="60" as="geometry" />
        </mxCell>
        <mxCell id="mTKkv3BIIv_ACwgYkmda-38" value="" style="edgeStyle=orthogonalEdgeStyle;rounded=0;orthogonalLoop=1;jettySize=auto;html=1;" parent="1" source="mTKkv3BIIv_ACwgYkmda-35" target="mTKkv3BIIv_ACwgYkmda-37" edge="1">
          <mxGeometry relative="1" as="geometry" />
        </mxCell>
        <mxCell id="mTKkv3BIIv_ACwgYkmda-35" value="Registrar en el historial de tareas" style="whiteSpace=wrap;html=1;verticalAlign=top;rounded=1;labelBackgroundColor=#ffffff;" parent="1" vertex="1">
          <mxGeometry x="2021" y="250" width="120" height="60" as="geometry" />
        </mxCell>
        <mxCell id="mTKkv3BIIv_ACwgYkmda-37" value="Actualizar puntaje del usuario" style="whiteSpace=wrap;html=1;verticalAlign=top;rounded=1;labelBackgroundColor=#ffffff;" parent="1" vertex="1">
          <mxGeometry x="2221" y="250" width="120" height="60" as="geometry" />
        </mxCell>
        <mxCell id="mTKkv3BIIv_ACwgYkmda-39" value="Si" style="text;html=1;align=center;verticalAlign=middle;resizable=0;points=[];autosize=1;strokeColor=none;fillColor=none;" parent="1" vertex="1">
          <mxGeometry x="1745" y="238" width="30" height="30" as="geometry" />
        </mxCell>
        <mxCell id="mTKkv3BIIv_ACwgYkmda-45" value="" style="points=[[0.145,0.145,0],[0.5,0,0],[0.855,0.145,0],[1,0.5,0],[0.855,0.855,0],[0.5,1,0],[0.145,0.855,0],[0,0.5,0]];shape=mxgraph.bpmn.event;html=1;verticalLabelPosition=bottom;labelBackgroundColor=#ffffff;verticalAlign=top;align=center;perimeter=ellipsePerimeter;outlineConnect=0;aspect=fixed;outline=end;symbol=terminate2;" parent="1" vertex="1">
          <mxGeometry x="2390" y="90" width="50" height="50" as="geometry" />
        </mxCell>
        <mxCell id="mTKkv3BIIv_ACwgYkmda-46" style="edgeStyle=orthogonalEdgeStyle;rounded=0;orthogonalLoop=1;jettySize=auto;html=1;entryX=0;entryY=0.5;entryDx=0;entryDy=0;entryPerimeter=0;" parent="1" source="mTKkv3BIIv_ACwgYkmda-30" target="mTKkv3BIIv_ACwgYkmda-45" edge="1">
          <mxGeometry relative="1" as="geometry">
            <Array as="points">
              <mxPoint x="1781" y="115" />
            </Array>
          </mxGeometry>
        </mxCell>
        <mxCell id="mTKkv3BIIv_ACwgYkmda-47" style="edgeStyle=orthogonalEdgeStyle;rounded=0;orthogonalLoop=1;jettySize=auto;html=1;entryX=0.5;entryY=1;entryDx=0;entryDy=0;entryPerimeter=0;" parent="1" source="mTKkv3BIIv_ACwgYkmda-37" target="mTKkv3BIIv_ACwgYkmda-45" edge="1">
          <mxGeometry relative="1" as="geometry" />
        </mxCell>
        <mxCell id="mTKkv3BIIv_ACwgYkmda-48" value="No" style="text;html=1;align=center;verticalAlign=middle;resizable=0;points=[];autosize=1;strokeColor=none;fillColor=none;" parent="1" vertex="1">
          <mxGeometry x="1740" y="125" width="40" height="30" as="geometry" />
        </mxCell>
      </root>
    </mxGraphModel>
  </diagram>
</mxfile>
